# xmcd CD database file
#
# Track frame offsets:
#	187
#	16222
#	27102
#	45410
#	62660
#	80845
#	95095
#	108955
#	121252
#	134887
#	148935
#	163952
#	183340
#	196400
#	211342
#
# Disc length: 3003 seconds
#
# Revision: 0
# Processed by: cddbd v1.5.1PL0 Copyright (c) Steve Scherf et al.
# Submitted via: CDex 1.51
#
DISCID=db0bb90f
DTITLE=いろいろなアーティスト - スタンダード・ジャズ．ベスト・コレクション　Ｖｏｌ．１
DYEAR=1900
DGENRE=Jazz
TTITLE0=サテン・ドール
TTITLE1=Ａ列車で行こう
TTITLE2=ソフィスティケイテッド・レディ
TTITLE3=キャラバン
TTITLE4=星影のステラ
TTITLE5=プリテンド
TTITLE6=捧ぐるは愛のみ
TTITLE7=トウー・ヤング
TTITLE8=オール・オブ・ミー
TTITLE9=君去りし後
TTITLE10=夜も昼も
TTITLE11=モア
TTITLE12=聖者の行進
TTITLE13=ユー・アー・マイ・サンシャイン
TTITLE14=ダニー・ボーイ
EXTD=
EXTT0=
EXTT1=
EXTT2=
EXTT3=
EXTT4=
EXTT5=
EXTT6=
EXTT7=
EXTT8=
EXTT9=
EXTT10=
EXTT11=
EXTT12=
EXTT13=
EXTT14=
PLAYORDER=
